<svg width="13" height="14" viewBox="0 0 13 14" fill="none" xmlns="http://www.w3.org/2000/svg">
<path d="M12.4689 0.937896C12.4105 0.89533 12.3425 0.865526 12.27 0.850711C12.1975 0.835897 12.1223 0.836456 12.05 0.852347L4.1652 2.67739C4.05772 2.70172 3.96221 2.75883 3.89405 2.83953C3.82589 2.92022 3.78904 3.01981 3.78944 3.12225V9.40154C3.42614 9.17305 2.99663 9.05176 2.55744 9.05365C2.11884 9.05365 1.69009 9.17406 1.32541 9.39967C0.960729 9.62527 0.676494 9.94594 0.508649 10.3211C0.340805 10.6963 0.296889 11.1091 0.382455 11.5074C0.468022 11.9057 0.679227 12.2715 0.989363 12.5586C1.2995 12.8458 1.69464 13.0413 2.12481 13.1205C2.55498 13.1998 3.00086 13.1591 3.40608 13.0037C3.81129 12.8483 4.15763 12.5851 4.4013 12.2475C4.64498 11.9099 4.77504 11.5129 4.77504 11.1068V3.47585L11.6742 1.87894V7.5765C11.3109 7.348 10.8814 7.22671 10.4422 7.2286C10.0036 7.2286 9.57488 7.34902 9.21019 7.57462C8.84551 7.80023 8.56128 8.12089 8.39343 8.49606C8.22559 8.87123 8.18167 9.28405 8.26724 9.68233C8.35281 10.0806 8.56401 10.4464 8.87415 10.7336C9.18428 11.0207 9.57942 11.2163 10.0096 11.2955C10.4398 11.3747 10.8856 11.3341 11.2909 11.1787C11.6961 11.0233 12.0424 10.7601 12.2861 10.4225C12.5298 10.0848 12.6598 9.68786 12.6598 9.28178V1.2972C12.6605 1.22766 12.6436 1.15893 12.6105 1.09653C12.5773 1.03413 12.5288 0.979798 12.4689 0.937896ZM2.55744 12.2475C2.31377 12.2475 2.07558 12.1806 1.87298 12.0552C1.67038 11.9299 1.51247 11.7518 1.41922 11.5433C1.32598 11.3349 1.30158 11.1056 1.34912 10.8843C1.39665 10.663 1.51399 10.4598 1.68629 10.3003C1.85858 10.1407 2.07811 10.0321 2.31709 9.98808C2.55607 9.94407 2.80379 9.96666 3.02891 10.053C3.25402 10.1393 3.44644 10.2855 3.58181 10.4731C3.71718 10.6607 3.78944 10.8812 3.78944 11.1068C3.78782 11.4089 3.6575 11.6981 3.42681 11.9117C3.19611 12.1253 2.88369 12.246 2.55744 12.2475ZM10.4422 10.4224C10.1986 10.4224 9.96037 10.3555 9.75776 10.2302C9.55516 10.1049 9.39726 9.92671 9.30401 9.71829C9.21076 9.50986 9.18636 9.28051 9.2339 9.05925C9.28144 8.83798 9.39877 8.63474 9.57107 8.47521C9.74337 8.31569 9.96289 8.20705 10.2019 8.16304C10.4409 8.11903 10.6886 8.14162 10.9137 8.22795C11.1388 8.31428 11.3312 8.46048 11.4666 8.64806C11.602 8.83564 11.6742 9.05618 11.6742 9.28178C11.6726 9.58383 11.5423 9.87309 11.3116 10.0867C11.0809 10.3003 10.7685 10.4209 10.4422 10.4224Z" fill="#707070"/>
</svg>
