<svg width="19" height="19" viewBox="0 0 19 19" fill="none" xmlns="http://www.w3.org/2000/svg">
<g clip-path="url(#clip0_133_347)">
<path d="M14.6807 10.4689V14.2189C14.6807 14.6314 14.3432 14.9689 13.9307 14.9689H4.93066C4.51816 14.9689 4.18066 14.6314 4.18066 14.2189V10.4689C4.18066 10.0564 3.84316 9.71887 3.43066 9.71887C3.01816 9.71887 2.68066 10.0564 2.68066 10.4689V14.9689C2.68066 15.7939 3.35566 16.4689 4.18066 16.4689H14.6807C15.5057 16.4689 16.1807 15.7939 16.1807 14.9689V10.4689C16.1807 10.0564 15.8432 9.71887 15.4307 9.71887C15.0182 9.71887 14.6807 10.0564 14.6807 10.4689ZM10.1807 10.2214L11.5907 8.81137C11.8832 8.51887 12.3557 8.51887 12.6482 8.81137C12.9407 9.10387 12.9407 9.57637 12.6482 9.86887L9.95566 12.5614C9.66316 12.8539 9.19066 12.8539 8.89816 12.5614L6.20566 9.86887C5.91316 9.57637 5.91316 9.10387 6.20566 8.81137C6.49816 8.51887 6.97066 8.51887 7.26316 8.81137L8.68066 10.2214V3.71887C8.68066 3.30637 9.01816 2.96887 9.43066 2.96887C9.84316 2.96887 10.1807 3.30637 10.1807 3.71887V10.2214Z" fill="#707070"/>
</g>
<defs>
<clipPath id="clip0_133_347">
<rect width="18" height="18" fill="white" transform="translate(0.430664 0.718872)"/>
</clipPath>
</defs>
</svg>
