<svg width="19" height="19" viewBox="0 0 19 19" fill="none" xmlns="http://www.w3.org/2000/svg">
<g clip-path="url(#clip0_133_356)">
<path d="M13.5679 12.7789C12.9979 12.7789 12.4879 13.0039 12.0979 13.3564L6.75037 10.2439C6.78787 10.0714 6.81787 9.89887 6.81787 9.71887C6.81787 9.53887 6.78787 9.36637 6.75037 9.19387L12.0379 6.11137C12.4429 6.48637 12.9754 6.71887 13.5679 6.71887C14.8129 6.71887 15.8179 5.71387 15.8179 4.46887C15.8179 3.22387 14.8129 2.21887 13.5679 2.21887C12.3229 2.21887 11.3179 3.22387 11.3179 4.46887C11.3179 4.64887 11.3479 4.82137 11.3854 4.99387L6.09787 8.07637C5.69287 7.70137 5.16037 7.46887 4.56787 7.46887C3.32287 7.46887 2.31787 8.47387 2.31787 9.71887C2.31787 10.9639 3.32287 11.9689 4.56787 11.9689C5.16037 11.9689 5.69287 11.7364 6.09787 11.3614L11.4379 14.4814C11.4004 14.6389 11.3779 14.8039 11.3779 14.9689C11.3779 16.1764 12.3604 17.1589 13.5679 17.1589C14.7754 17.1589 15.7579 16.1764 15.7579 14.9689C15.7579 13.7614 14.7754 12.7789 13.5679 12.7789Z" fill="#4B1FC8"/>
</g>
<defs>
<clipPath id="clip0_133_356">
<rect width="18" height="18" fill="white" transform="translate(0.0678711 0.718872)"/>
</clipPath>
</defs>
</svg>
