<svg width="14" height="14" viewBox="0 0 14 14" fill="none" xmlns="http://www.w3.org/2000/svg">
<path d="M6.06017 7.94C6.33351 8.2 6.33351 8.62667 6.06017 8.88667C5.80017 9.14667 5.37351 9.14667 5.11351 8.88667C4.48909 8.26131 4.13838 7.41372 4.13838 6.53C4.13838 5.64628 4.48909 4.79869 5.11351 4.17333L7.47351 1.81333C8.09886 1.18892 8.94646 0.838205 9.83017 0.838205C10.7139 0.838205 11.5615 1.18892 12.1868 1.81333C12.8113 2.43868 13.162 3.28628 13.162 4.17C13.162 5.05372 12.8113 5.90131 12.1868 6.52667L11.1935 7.52C11.2002 6.97333 11.1135 6.42667 10.9268 5.90667L11.2402 5.58667C11.4271 5.40179 11.5754 5.18168 11.6767 4.93909C11.778 4.69649 11.8301 4.43622 11.8301 4.17333C11.8301 3.91045 11.778 3.65018 11.6767 3.40758C11.5754 3.16498 11.4271 2.94487 11.2402 2.76C11.0553 2.57311 10.8352 2.42474 10.5926 2.32348C10.35 2.22222 10.0897 2.17008 9.82684 2.17008C9.56396 2.17008 9.30368 2.22222 9.06109 2.32348C8.81849 2.42474 8.59838 2.57311 8.41351 2.76L6.06017 5.11333C5.87328 5.29821 5.72491 5.51831 5.62365 5.76091C5.52239 6.00351 5.47026 6.26378 5.47026 6.52667C5.47026 6.78955 5.52239 7.04982 5.62365 7.29242C5.72491 7.53502 5.87328 7.75512 6.06017 7.94ZM7.94017 5.11333C8.20017 4.85333 8.62684 4.85333 8.88684 5.11333C9.51125 5.73869 9.86197 6.58628 9.86197 7.47C9.86197 8.35372 9.51125 9.20131 8.88684 9.82667L6.52684 12.1867C5.90149 12.8111 5.05389 13.1618 4.17017 13.1618C3.28646 13.1618 2.43886 12.8111 1.81351 12.1867C1.18909 11.5613 0.838379 10.7137 0.838379 9.83C0.838379 8.94628 1.18909 8.09869 1.81351 7.47333L2.80684 6.48C2.80017 7.02667 2.88684 7.57333 3.07351 8.1L2.76017 8.41333C2.57328 8.59821 2.42491 8.81831 2.32365 9.06091C2.22239 9.30351 2.17026 9.56378 2.17026 9.82667C2.17026 10.0895 2.22239 10.3498 2.32365 10.5924C2.42491 10.835 2.57328 11.0551 2.76017 11.24C2.94505 11.4269 3.16515 11.5753 3.40775 11.6765C3.65035 11.7778 3.91062 11.8299 4.17351 11.8299C4.43639 11.8299 4.69666 11.7778 4.93926 11.6765C5.18186 11.5753 5.40197 11.4269 5.58684 11.24L7.94017 8.88667C8.12706 8.70179 8.27543 8.48169 8.37669 8.23909C8.47795 7.99649 8.53009 7.73622 8.53009 7.47333C8.53009 7.21045 8.47795 6.95018 8.37669 6.70758C8.27543 6.46498 8.12706 6.24487 7.94017 6.06C7.87543 5.99933 7.82381 5.92602 7.78853 5.8446C7.75325 5.76319 7.73504 5.6754 7.73504 5.58667C7.73504 5.49793 7.75325 5.41015 7.78853 5.32873C7.82381 5.24732 7.87543 5.17401 7.94017 5.11333Z" fill="#4B1FC8"/>
</svg>
